<svg width="19" height="16" viewBox="0 0 19 16" fill="none" xmlns="http://www.w3.org/2000/svg">
<g id="Group 12">
<path id="Vector" d="M2.29588 15H16.1018C16.3261 15 16.5465 14.9471 16.7415 14.8465C16.9365 14.746 17.0994 14.6012 17.2144 14.4263C17.3294 14.2514 17.3924 14.0524 17.3974 13.8488C17.4024 13.6451 17.3491 13.4438 17.2428 13.2644L10.3402 1.61924C9.85056 0.793587 8.54716 0.793587 8.05748 1.61924L1.1549 13.2644C1.0486 13.4438 0.995336 13.6451 1.00032 13.8488C1.0053 14.0524 1.06836 14.2514 1.18333 14.4263C1.2983 14.6012 1.46125 14.746 1.65625 14.8465C1.85126 14.9471 2.07164 15 2.29588 15Z" stroke="white" stroke-width="1.4" stroke-linecap="round" stroke-linejoin="round"/>
<path id="Vector_2" d="M8.9661 5.76996L9.19859 10.2588L9.43067 5.7718C9.43211 5.74311 9.42708 5.71446 9.41592 5.6876C9.40475 5.66074 9.38767 5.63623 9.36572 5.61557C9.34377 5.5949 9.31741 5.57852 9.28826 5.56743C9.2591 5.55633 9.22777 5.55076 9.19616 5.55104C9.1651 5.55131 9.13442 5.55724 9.10593 5.56846C9.07744 5.57969 9.05171 5.59598 9.03027 5.61639C9.00882 5.6368 8.99209 5.6609 8.98107 5.68727C8.97005 5.71365 8.96496 5.74176 8.9661 5.76996Z" stroke="white" stroke-width="1.4" stroke-linecap="round" stroke-linejoin="round"/>
<path id="Vector_3" d="M9.19764 13.1971C9.03742 13.1971 8.88081 13.1539 8.74759 13.0731C8.61438 12.9922 8.51055 12.8773 8.44924 12.7428C8.38792 12.6084 8.37188 12.4604 8.40314 12.3177C8.4344 12.1749 8.51155 12.0438 8.62484 11.9409C8.73813 11.838 8.88247 11.7679 9.0396 11.7395C9.19674 11.7111 9.35962 11.7257 9.50764 11.7814C9.65566 11.8371 9.78218 11.9314 9.87119 12.0524C9.9602 12.1734 10.0077 12.3157 10.0077 12.4612C10.0077 12.6564 9.92236 12.8436 9.77044 12.9816C9.61853 13.1196 9.41248 13.1971 9.19764 13.1971Z" fill="white"/>
</g>
</svg>
